# xmcd
#
# Track frame offsets:
#	150
#	16347
#	35387
#	54370
#	69425
#	90526
#	115743
#	131758
#	146652
#	163400
#	182377
#	197912
#	217307
#	228830
#	238382
#
# Disc length: 3352 seconds
#
# Revision: 1
# Processed by: cddbd v1.5.2PL0 Copyright (c) Steve Scherf et al.
# Submitted via: audiograbber 1.83.01
#
DISCID=d80d160f
DTITLE=Dolly Parton - Backwoods Barbie (Cracker Barrel Collector's Edition)
DYEAR=2008
DGENRE=Country
TTITLE0=Better Get to Lovin'
TTITLE1=Made of Stone
TTITLE2=Drives Me Crazy
TTITLE3=Backwoods Barbie
TTITLE4=Jesus and Gravity
TTITLE5=Only Dreamin'
TTITLE6=The Tracks of My Tears
TTITLE7=The Lonesomes
TTITLE8=Cologne
TTITLE9=Shirola
TTITLE10=I Will Forever Hate Roses
TTITLE11=Somebody's Everything
TTITLE12=Rose of My Heart (Previously Unreleased)
TTITLE13=Hallelujah Holiday (Previously Unreleased)
TTITLE14=Berry Pie (Previously Unreleased)
EXTD=
EXTT0=
EXTT1=
EXTT2=
EXTT3=
EXTT4=
EXTT5=
EXTT6=
EXTT7=
EXTT8=
EXTT9=
EXTT10=
EXTT11=
EXTT12=
EXTT13=
EXTT14=
PLAYORDER=
